# xmcd CD database file
#
# Track frame offsets:
#	150
#	19305
#	44012
#
# Disc length: 839 seconds
#
# Revision: 1
# Processed by: cddbd v1.5PL3 Copyright (c) Steve Scherf et al.
# Submitted via: CDex 1.51
#
DISCID=23034503
DTITLE=The High-Lows - 胸がドキドキ／そばにいるから
DYEAR=1900
DGENRE=
TTITLE0=胸がドキドキ
TTITLE1=そばにいるから
TTITLE2=胸がドキドキ (オリジナルカラオケ)
EXTD=
EXTT0=
EXTT1=
EXTT2=
PLAYORDER=
